<svg id="Layer_1" data-name="Layer 1" xmlns="http://www.w3.org/2000/svg" viewBox="0 0 96 96"><defs><style>.cls-1{fill:none;stroke:#000;stroke-linecap:round;stroke-linejoin:round;stroke-width:1.98px;}</style></defs><title>abacus, calculate, calculations, math, mathematics</title><path class="cls-1" d="M5.51,80.61h85a4,4,0,0,1,4,4v9.88a0,0,0,0,1,0,0H1.55a0,0,0,0,1,0,0V84.56A4,4,0,0,1,5.51,80.61Z"/><path class="cls-1" d="M7.48,1.55h4a2,2,0,0,1,2,2V80.61a0,0,0,0,1,0,0H5.51a0,0,0,0,1,0,0V3.53A2,2,0,0,1,7.48,1.55Z"/><path class="cls-1" d="M84.56,1.55h4a2,2,0,0,1,2,2V80.61a0,0,0,0,1,0,0H82.59a0,0,0,0,1,0,0V3.53A2,2,0,0,1,84.56,1.55Z"/><line class="cls-1" x1="42.07" y1="66.78" x2="37.13" y2="66.78"/><line class="cls-1" x1="82.59" y1="66.78" x2="62.82" y2="66.78"/><line class="cls-1" x1="54.92" y1="66.78" x2="49.98" y2="66.78"/><line class="cls-1" x1="29.22" y1="66.78" x2="13.41" y2="66.78"/><line class="cls-1" x1="82.59" y1="47.01" x2="75.67" y2="47.01"/><line class="cls-1" x1="54.92" y1="47.01" x2="49.98" y2="47.01"/><line class="cls-1" x1="42.07" y1="47.01" x2="13.41" y2="47.01"/><line class="cls-1" x1="67.76" y1="47.01" x2="62.82" y2="47.01"/><ellipse class="cls-1" cx="33.18" cy="66.78" rx="3.95" ry="6.92"/><ellipse class="cls-1" cx="46.02" cy="66.78" rx="3.95" ry="6.92"/><ellipse class="cls-1" cx="58.87" cy="66.78" rx="3.95" ry="6.92"/><ellipse class="cls-1" cx="46.02" cy="47.01" rx="3.95" ry="6.92"/><ellipse class="cls-1" cx="58.87" cy="47.01" rx="3.95" ry="6.92"/><ellipse class="cls-1" cx="71.72" cy="47.01" rx="3.95" ry="6.92"/><line class="cls-1" x1="54.92" y1="27.25" x2="27.25" y2="27.25"/><line class="cls-1" x1="82.59" y1="27.25" x2="75.67" y2="27.25"/><line class="cls-1" x1="67.76" y1="27.25" x2="62.82" y2="27.25"/><line class="cls-1" x1="19.34" y1="27.25" x2="13.41" y2="27.25"/><ellipse class="cls-1" cx="23.29" cy="27.25" rx="3.95" ry="6.92"/><ellipse class="cls-1" cx="58.87" cy="27.25" rx="3.95" ry="6.92"/><ellipse class="cls-1" cx="71.72" cy="27.25" rx="3.95" ry="6.92"/><line class="cls-1" x1="32.19" y1="8.47" x2="27.25" y2="8.47"/><line class="cls-1" x1="82.59" y1="8.47" x2="75.67" y2="8.47"/><line class="cls-1" x1="67.76" y1="8.47" x2="40.09" y2="8.47"/><line class="cls-1" x1="19.34" y1="8.47" x2="13.41" y2="8.47"/><ellipse class="cls-1" cx="23.29" cy="8.47" rx="3.95" ry="6.92"/><ellipse class="cls-1" cx="36.14" cy="8.47" rx="3.95" ry="6.92"/><ellipse class="cls-1" cx="71.72" cy="8.47" rx="3.95" ry="6.92"/></svg>